<?xml version="1.0" standalone="no"?>
<!DOCTYPE svg PUBLIC "-//W3C//DTD SVG 1.1//EN" "http://www.w3.org/Graphics/SVG/1.1/DTD/svg11.dtd" >
<!--
2013-9-30: Created.
-->
<svg>
<metadata>
Created by iconfont
</metadata>
<defs>

<font id="iconfont" horiz-adv-x="1024" >
  <font-face
    font-family="iconfont"
    font-weight="500"
    font-stretch="normal"
    units-per-em="1024"
    ascent="896"
    descent="-128"
  />
    <missing-glyph />
    
    <glyph glyph-name="x" unicode="x" horiz-adv-x="1001"
d="M281 543q-27 -1 -53 -1h-83q-18 0 -36.5 -6t-32.5 -18.5t-23 -32t-9 -45.5v-76h912v41q0 16 -0.5 30t-0.5 18q0 13 -5 29t-17 29.5t-31.5 22.5t-49.5 9h-133v-97h-438v97zM955 310v-52q0 -23 0.5 -52t0.5 -58t-10.5 -47.5t-26 -30t-33 -16t-31.5 -4.5q-14 -1 -29.5 -0.5
t-29.5 0.5h-32l-45 128h-439l-44 -128h-29h-34q-20 0 -45 1q-25 0 -41 9.5t-25.5 23t-13.5 29.5t-4 30v167h911zM163 247q-12 0 -21 -8.5t-9 -21.5t9 -21.5t21 -8.5q13 0 22 8.5t9 21.5t-9 21.5t-22 8.5zM316 123q-8 -26 -14 -48q-5 -19 -10.5 -37t-7.5 -25t-3 -15t1 -14.5
t9.5 -10.5t21.5 -4h37h67h81h80h64h36q23 0 34 12t2 38q-5 13 -9.5 30.5t-9.5 34.5q-5 19 -11 39h-368zM336 498v228q0 11 2.5 23t10 21.5t20.5 15.5t34 6h188q31 0 51.5 -14.5t20.5 -52.5v-227h-327z" />
    

    
    <glyph glyph-name="yueliang" unicode="&#58880;" d="M340.992 856.064q-36.864-31.744-60.928-70.144t-38.912-82.944-20.992-93.184-6.144-100.864q0-84.992 32.768-161.792t89.6-134.656 134.144-92.16 166.4-34.304q52.224 0 101.888 5.12t95.232 18.432 85.504 36.352 71.68 59.904q-27.648-67.584-74.24-124.416t-106.496-97.792-131.072-63.488-148.992-22.528q-103.424 0-194.048 38.912t-158.208 106.496-106.496 158.208-38.912 194.048q0 77.824 22.528 148.992t63.488 131.072 97.792 106.496 124.416 74.24z"  horiz-adv-x="1024" />

    
    <glyph glyph-name="accessories" unicode="&#58893;" d="M525.838 481.73c-122.050 0-235.243 42.676-235.243-110.703 0-143.872 113.194-262.919 235.243-262.919 122.036 0 235.243 119.047 235.243 262.919 0 156.409-113.207 110.703-235.243 110.703zM525.838 135.521c-109.208 0-207.568 106.773-207.568 235.506 0 134.781 98.359 83.027 207.568 83.027s207.568 52.625 207.568-83.027c-0-128.733-98.359-235.506-207.568-235.506zM484.601 38.794c0-28.022 18.46-41.61 41.334-41.61 22.888 0 41.514 13.575 41.514 41.61s-43.174 69.286-41.514 69.286c3.515-0-41.334-41.251-41.334-69.286zM512 800c-282.776 0-512-229.224-512-512s229.224-512 512-512 512 229.224 512 512-229.224 512-512 512zM512-196.324c-267.485 0-484.324 216.839-484.324 484.324s216.839 484.324 484.324 484.324 484.324-216.839 484.324-484.324-216.839-484.324-484.324-484.324z"  horiz-adv-x="1024" />

    
    <glyph glyph-name="xiangxiajiantou" unicode="&#58898;" d="M510.719332 762.149639c-249.223155 0-451.256544-202.034413-451.256544-451.255521s202.033389-451.255521 451.256544-451.255521c249.221108 0 451.254497 202.034413 451.254497 451.255521S759.94044 762.149639 510.719332 762.149639zM510.719332-96.36026c-228.877781 0-407.255401 178.37762-407.255401 407.254378 0 228.876758 178.37762 407.254378 407.255401 407.254378 228.874711 0 407.254378-178.378643 407.254378-407.254378C917.972687 82.01736 739.594043-96.36026 510.719332-96.36026zM750.930229 427.417995 812.23548 427.417995 511.122515 99.201741 209.200114 427.417995 270.642488 427.417995 511.122515 165.996007Z"  horiz-adv-x="1024" />

    
    <glyph glyph-name="bf-icon-battery1" unicode="&#58918;" d="M933.096 369.62v87.021c0 48.058-37.784 87.022-84.385 87.022h-717.266c-46.601 0-84.384-38.964-84.384-87.022v-348.085c0-48.058 37.784-87.021 84.384-87.021h717.266c46.601 0 84.385 38.963 84.385 87.021v87c23.301 0 42.192 19.482 42.192 43.531v87.022c-0 24.007-18.892 43.51-42.192 43.51M890.903 108.555c0-24.050-18.892-43.511-42.192-43.511h-717.266c-23.301 0-42.192 19.461-42.192 43.511l0 348.086c0 24.019 18.891 43.512 42.192 43.512h717.266c23.301 0 42.192-19.493 42.192-43.512v-348.086zM131.445 108.555h717.266v348.086h-717.266l0-348.086z"  horiz-adv-x="1024" />

    
    <glyph glyph-name="shijian" unicode="&#58962;" d="M512.38374-141.859523c-246.952438 0-447.13876 200.199625-447.13876 447.13876 0 246.944252 200.186322 447.13876 447.13876 447.13876 246.944252 0 447.13876-200.194508 447.13876-447.13876C959.5225 58.339078 759.327992-141.859523 512.38374-141.859523zM512.38374 701.746944c-218.961944 0-396.467707-177.50167-396.467707-396.467707 0-218.961944 177.505763-396.467707 396.467707-396.467707s396.467707 177.505763 396.467707 396.467707S731.345684 701.746944 512.38374 701.746944zM741.42525 193.166833c-6.158257-13.192464-21.880333-18.860557-35.072797-12.67774L496.235968 250.732923c-10.04989 4.692882-15.645328 14.900362-15.07944 25.333992-0.127913 1.056052-0.61296 1.933025-0.61296 3.019777L480.543567 569.342378c0 14.585183 11.799744 26.390044 26.38595 26.390044 14.585183 0 26.38595-11.80486 26.38595-26.390044l0-275.727809 195.408505-65.35038C741.940996 222.081373 747.609089 206.384879 741.42525 193.166833z"  horiz-adv-x="1024" />

    
    <glyph glyph-name="55240" unicode="&#58888;" d="M315.848613 666.095931l315.951473 0c8.302249 0 15.030114 6.729965 15.030114 15.032213 0 8.302249-6.727865 15.032213-15.030114 15.032213L315.848613 696.160358c-8.302249 0-15.032213-6.729965-15.032213-15.032213C300.8164 672.825895 307.546364 666.095931 315.848613 666.095931zM33.278268 519.119887l315.949374 0c8.302249 0 15.032213 6.729965 15.032213 15.032213s-6.729965 15.030114-15.032213 15.030114L33.278268 549.182214c-8.302249 0-15.032213-6.727865-15.032213-15.030114S24.976019 519.119887 33.278268 519.119887zM118.095554 364.458752c0-8.302249 6.729965-15.034313 15.032213-15.034313L449.077141 349.42444c8.302249 0 15.032213 6.732064 15.032213 15.034313s-6.729965 15.030114-15.032213 15.030114L133.127767 379.488867C124.825518 379.488867 118.095554 372.761001 118.095554 364.458752zM298.914545 189.752568 15.032213 189.752568C6.729965 189.752568 0 183.024702 0 174.722453s6.729965-15.032213 15.032213-15.032213l283.882331 0c8.302249 0 15.032213 6.729965 15.032213 15.032213S307.216793 189.752568 298.914545 189.752568zM809.713815 571.849138c45.342244 0 82.100949 36.762904 82.100949 82.107247s-36.760804 82.105147-82.100949 82.105147c-45.35274 0-82.117743-36.762904-82.117743-82.105147C727.593973 608.612042 764.358976 571.849138 809.713815 571.849138zM944.768627 595.492179c-47.145438-66.038039-110.276116-73.685345-178.209713-33.355938-4.624489 2.741526-25.141854 14.0456-29.684476 16.745143-109.285304 64.877194-218.442558 39.435157-291.647191-63.080298-31.107718-43.602025 40.839507-84.930641 71.598762-41.836617 37.822988 52.966458 85.917255 68.292557 138.516357 51.515926-26.932453-46.748693-50.478932-93.213997-83.704721-159.228946-33.234185-66.014948-106.610951-118.733704-177.116041-77.50165-50.873578 29.734856-96.751112-43.350124-46.030774-72.992616 96.255706-56.25587 209.118009-21.711798 266.734146 51.415166 1.998417-1.068482 4.11019-2.032004 6.427683-2.842287 47.067768-16.398778 108.766807-60.057481 127.567045-75.530522 18.79394-15.473041 51.085595-94.297173 70.261585-133.902364 23.26309-48.056481 98.39057-13.054788 75.041414 35.205314-21.736988 44.935003-58.2228 134.618183-86.681355 157.308198-22.82856 18.197774-67.148505 52.065911-104.738484 71.279687 25.431541 49.25931 51.910572 97.987528 79.785556 145.873976 88.854005-27.224239 173.310231 4.844903 233.460077 89.101708C1047.481405 597.261786 975.550973 638.590402 944.768627 595.492179z"  horiz-adv-x="1025" />

    
    <glyph glyph-name="zan" unicode="&#58882;" d="M1146.11 377.939c0 95.725-76.076 93.37-76.076 93.37l-289.794 3.649c-20.757 53.561 6.571 109.866 6.571 109.866 42.15 91.749-7.081 195.033-7.081 195.033-67.549 151.546-163.056 68.357-163.056 68.357 0-76.117 12.062-152.222 12.062-152.222-110.317-137.868-212.123-301.443-212.123-301.443h-95.859c0 0-72.429-6.722-72.429-83.346v-260.553c0 0 2.19-84.646 85.195-84.646h92.266c22.329-70.679 134.549-69.001 134.549-69.001h401.291c42.801 6.228 56.034 48.254 56.034 48.254 10.893 51.358-38.134 76.258-38.134 76.258 60.697-14.014 86.385 40.461 86.385 40.461 24.134 59.921-31.902 92.608-31.902 92.608 68.473 0 77.82 64.587 77.82 64.587 3.888 66.926-43.571 87.947-43.571 87.947 77.811 3.111 77.811 70.833 77.811 70.833z"  horiz-adv-x="1411" />

    
    <glyph glyph-name="weibo" unicode="&#58885;" d="M769.68692 405.63474c-14.390755 4.341888-24.252357 7.297197-16.71673 26.348088 16.311501 41.336454 18.014282 77.016071 0.304945 102.44523-33.164331 47.743374-123.94694 45.161572-227.989551 1.304715 0 0.049119-32.66598-14.403035-24.326035 11.701506 16.011672 51.80897 13.596669 95.204315-11.308557 120.266108-56.450686 56.874335-206.564589-2.14485-335.283206-131.750673-96.395444-97.099479-152.378479-199.988824-152.378479-288.961204 0-170.199357 216.72602-273.681196 428.740738-273.681196 277.94736 0 462.836277 162.613588 462.836277 291.750737C893.565299 343.053426 828.313156 387.333932 769.68692 405.63474L769.68692 405.63474 769.68692 405.63474zM431.29798 34.317852c-169.189354-16.815991-315.224358 60.199057-326.214666 172.057681-10.983145 111.840204 117.304659 216.150922 286.462291 232.998635 169.20061 16.841573 315.254034-60.162218 326.213643-171.989119C728.717833 155.476283 600.517009 51.171706 431.29798 34.317852L431.29798 34.317852 431.29798 34.317852zM954.257589 717.090261c-67.12377 74.944899-166.133761 103.518678-257.500679 83.944877l-0.056282 0c-21.140483-4.558829-34.619472-25.497721-30.090319-46.756907 4.50971-21.282722 25.300222-34.874275 46.451962-30.332842 65.001433 13.897521 135.367037-6.430456 183.072549-59.655681 47.686069-53.244668 60.623729-125.856429 40.207747-189.504028l0.013303-0.01228c-6.649444-20.739347 4.607948-42.908252 25.229614-49.612954 20.516266-6.687306 42.590004 4.627391 49.25889 25.311479l0.019443 0.150426C1039.498996 540.172899 1021.397732 642.213923 954.257589 717.090261M851.180979 623.420905c-32.659841 36.495192-80.901565 50.355875-125.431757 40.830941-18.206664-3.917216-29.78435-21.949918-25.904996-40.287565 3.90596-18.271132 21.801539-30.009478 39.952944-26.0237l0-0.049119c21.769816 4.640694 45.378513-2.116197 61.333904-19.929912 15.994276-17.84646 20.297278-42.165332 13.44215-63.504336l0.031722 0c-5.709025-17.802458 3.966335-36.951587 21.668509-42.72815 17.715477-5.706979 36.688597 4.022617 42.397622 21.868053C892.672976 537.215544 883.928824 586.929806 851.180979 623.420905M448.201975 353.289558c-80.508615 21.089317-171.490769-19.317974-206.464305-90.750887-35.617196-72.861448-1.186012-153.738453 80.158644-180.179662 84.244706-27.358091 183.559643 14.570857 218.09725 93.215008C574.037938 252.440685 531.516496 331.607746 448.201975 353.289558L448.201975 353.289558 448.201975 353.289558zM386.728902 167.234071c-16.367783-26.297946-51.41602-37.823444-77.799924-25.686009-26.016537 11.920494-33.689287 42.452881-17.328667 68.103074 16.168238 25.536606 50.037626 36.901445 76.229149 25.841551C394.33309 224.107383 402.797879 193.774541 386.728902 167.234071L386.728902 167.234071 386.728902 167.234071zM440.640766 236.90792c-5.925966-10.18599-19.005866-15.09479-29.254278-10.840906-10.07445 4.16588-13.229303 15.568581-7.503904 25.580608 5.894244 9.960863 18.46249 14.807241 28.511357 10.789741C442.6137 258.690016 446.286346 247.156332 440.640766 236.90792L440.640766 236.90792 440.640766 236.90792zM440.640766 236.90792"  horiz-adv-x="1040" />

    
    <glyph glyph-name="shouji" unicode="&#58901;" d="M794.770036 896 228.223389 896C205.69064 896 187.425673 878.023329 187.425673 855.841712l0-943.683424c0-22.181617 18.2662-40.158288 40.797716-40.158288l566.546647 0c22.531516 0 40.798948 17.976671 40.798948 40.158288L835.568984 855.841712C835.568984 878.018401 817.301552 896 794.770036 896L794.770036 896zM477.403133 840.629735l68.187159 0c12.55447 0 22.72741-10.174172 22.72741-22.72741 0-12.55447-10.17294-22.72741-22.72741-22.72741l-68.187159 0c-12.553238 0-22.731106 10.17294-22.731106 22.72741C454.672026 830.455563 464.849895 840.629735 477.403133 840.629735L477.403133 840.629735zM556.954613-79.042494l-90.919498 0 0 90.918266 90.919498 0L556.954613-79.042494 556.954613-79.042494zM766.769502 79.278122c0-22.531516-18.2662-40.797716-40.797716-40.797716L297.022871 38.480406c-22.531516 0-40.798948 18.2662-40.798948 40.797716L256.223923 728.529035c0 22.531516 18.267432 40.797716 40.798948 40.797716l428.948915 0c22.531516 0 40.797716-18.2662 40.797716-40.797716L766.769502 79.278122 766.769502 79.278122zM766.769502 79.278122"  horiz-adv-x="1024" />

    
    <glyph glyph-name="youyong" unicode="&#59003;" d="M440.005 489.82c16.654 2.655 23.643-9.027 13.892-18.143-51.083-47.967-128.999-127.263-128.999-127.263 14.323 7.965 31.667 13.629 53.93 13.629 50.047 0 76.192-9.911 95.347-30.444 16.912-18.143 25.714-29.294 44.525-29.294 18.897 0 26.662 11.151 43.575 29.294 19.156 20.532 60.747 49.206 116.229 25.311 25.541 28.851 10.268 53.985-10.441 80.977l-17.517 22.922c-34.946 45.489-65.147 84.783-78.781 101.509-36.327 44.692-72.567 37.436-160.063 20.178 0 0-176.717-64.251-177.58-64.516l0.173-49.118c0.604 0.177 129.69 12.832 205.71 24.957M765.999 462.827c58.762 0 106.479 48.941 106.479 109.209 0 60.269-47.717 109.209-106.479 109.209-58.762 0-106.479-48.941-106.479-109.209 0-60.269 47.717-109.209 106.479-109.209M797.149 79.976c-18.897 0-27.181 8.053-44.093 26.108-19.156 20.532-45.388 48.675-95.434 48.675-49.961 0-76.192-28.143-95.347-48.587-16.912-18.143-25.109-26.196-44.006-26.196-18.897 0-27.181 8.053-44.093 26.108-19.156 20.532-45.301 48.675-95.347 48.675-50.047 0-76.278-28.143-95.434-48.675-16.826-18.054-25.109-26.108-44.006-26.108-18.811 0-27.094 8.053-44.006 26.108-19.07 20.532-52.98 48.675-103.027 48.675l0-72.835c18.897 0 34.86-7.965 51.686-26.108 19.156-20.532 45.388-48.675 95.347-48.675 50.047 0 76.278 28.143 95.347 48.675 16.912 18.143 25.196 26.108 44.093 26.108 18.897 0 27.181-7.965 44.006-26.108 19.156-20.532 45.388-48.675 95.434-48.675 50.047 0 76.192 28.143 95.347 48.675 16.912 18.143 25.196 26.108 44.006 26.108 18.897 0 27.181-7.965 44.093-26.108 19.156-20.532 45.388-48.675 95.434-48.675 49.961 0 76.192 28.143 95.347 48.675 16.912 18.143 32.962 26.108 51.859 26.108l0 72.835c-50.047 0-84.044-28.143-103.2-48.675-16.912-18.054-25.109-26.108-44.006-26.108M841.156 254.764c-16.912-18.143-25.109-26.108-44.006-26.108s-27.181 7.965-44.093 26.108c-19.156 20.532-45.388 48.675-95.434 48.675-50.047 0-76.192-28.054-95.347-48.675-16.912-18.143-25.196-26.108-44.006-26.108-18.897 0-27.181 7.965-44.093 26.108-19.156 20.532-45.301 48.675-95.347 48.675-50.047 0-76.278-28.143-95.434-48.675-16.826-18.143-25.109-26.108-44.006-26.108-18.811 0-27.094 7.965-44.006 26.108-19.07 20.532-52.98 44.161-103.027 44.161 0 0-35.465-1.681-35.465-35.842 0-34.161 35.465-36.993 35.465-36.993 18.897 0 34.86-3.452 51.686-21.594 19.156-20.532 45.388-48.675 95.347-48.675 50.047 0 76.278 28.143 95.347 48.675 16.912 18.143 25.196 26.108 44.093 26.108 18.897 0 27.181-7.965 44.006-26.108 19.156-20.532 45.388-48.675 95.434-48.675 50.047 0 76.192 28.143 95.347 48.675 16.912 18.143 25.196 26.108 44.006 26.108 18.897 0 27.181-7.965 44.093-26.108 19.156-20.532 45.388-48.675 95.434-48.675 50.047 0 76.192 28.143 95.347 48.675 16.912 18.143 32.962 21.063 51.859 21.063l0 72.747c-50.047 0-84.044-23.01-103.2-43.542z"  horiz-adv-x="1024" />

    
    <glyph glyph-name="jibu" unicode="&#58908;" d="M642.14528 198.51776c-5.49888 0-10.8032 0.36864-16.41984 0.76288-6.74816 0.46592-13.70624 0.95744-21.41184 0.77824-67.96288-1.64864-133.06368 16.16896-182.2208 49.7664-51.77344 35.38432-84.5056 86.26688-94.6688 147.15392-21.77536 130.51392 68.01408 254.63808 200.17152 276.69504a248.54016 248.54016 0 0 0 40.75008 3.38944 243.95776 243.95776 0 0 0 155.45344-56.0384 238.30528 238.30528 0 0 0 82.96448-144.06144c12.53888-75.16672-16.00512-153.68704-84.85376-233.38496-32.3072-37.39136-55.24992-45.06112-79.76448-45.06112z m8.17664 32.29184c10.43968 3.34848 20.10112 2.64704 47.10912 33.90976 62.2592 72.07424 88.32 141.696 77.44 206.9248-16.74752 100.28544-103.59808 173.07648-206.52544 173.07648a215.3984 215.3984 0 0 1-35.42528-2.94912c-114.56-19.11296-192.4352-126.5408-173.5936-239.4624 19.59936-117.44256 132.81792-171.89376 236.30848-171.89376 2.6368 0 44.24192-2.95424 54.68672 0.39424zM673.17248-61.86496c-65.44384 0-124.24704 48.27136-139.8272 114.78528-8.92416 38.13888-3.15392 77.3632 16.25088 110.42304 19.5584 33.32608 50.59584 56.42752 87.38816 65.03936a136.0896 136.0896 0 0 0 30.94016 3.584c65.44896 0 124.25216-48.2816 139.8272-114.79552 18.50368-79.03232-27.99104-157.73696-103.63904-175.45216a135.8336 135.8336 0 0 0-30.94016-3.584z m-5.248 261.48864c-7.88992 0-15.8208-0.9216-23.56736-2.72896-28.08832-6.58432-51.84-24.30464-66.87744-49.92-15.1808-25.87648-19.67616-56.65792-12.6464-86.67648 12.1856-52.04992 57.74336-89.82016 108.32896-89.82016 7.88992 0 15.82592 0.9216 23.56736 2.73408 58.29632 13.6448 93.96224 74.92096 79.51872 136.58624-12.18048 52.0448-57.73824 89.82528-108.32384 89.82528zM223.61088 655.13984m-82.15552 0a82.15552 82.15552 0 1 1 164.31104 0 82.15552 82.15552 0 1 1-164.31104 0ZM381.59872 758.38976m-68.46976 0a68.46976 68.46976 0 1 1 136.93952 0 68.46976 68.46976 0 1 1-136.93952 0ZM545.72544 782.02368m-47.8464 0a47.8464 47.8464 0 1 1 95.6928 0 47.8464 47.8464 0 1 1-95.6928 0ZM680.07424 765.8496m-32.91648 0a32.91648 32.91648 0 1 1 65.83296 0 32.91648 32.91648 0 1 1-65.83296 0ZM768.39424 704.37376m-25.45152 0a25.45152 25.45152 0 1 1 50.90304 0 25.45152 25.45152 0 1 1-50.90304 0Z"  horiz-adv-x="1024" />

    
    <glyph glyph-name="xindiantu" unicode="&#58884;" d="M895.3 704.2h-768c-35.2 0-64-28.8-64-64v-511.9c0-35.2 28.8-64 64-64h768c35.2 0 64 28.8 64 64v511.9c0 35.2-28.8 64-64 64zM896.2 170.2c0-23.1-18.9-42-42-42h-683.5c-23.1 0-42 18.9-42 42v427.8c0 23.1 18.9 42 42 42h683.5c23.1 0 42-18.9 42-42v-427.8zM831.2 335h-35.9c-13 22.1-21.6 36.7-34.7 58.8-6 10.1-19.7 9.2-25.9 0-14.7-22.1-24.6-36.8-39.3-58.8 0.1 0.1 0.3 0.2 0.4 0.2-0.1-0.1-0.3-0.2-0.4-0.2-0.2-0.1-0.3-0.2-0.5-0.3 0.1 0.1 0.3 0.2 0.5 0.3h-56.8c-5 0-10.7-2.8-13-7.4-20.5-42.1-21.9-44.9-42.5-87 0.5-0.1 0.8-0.1 1.1-0.1-0.4 0-0.8 0.1-1.1 0.1 0-0.1 0-0.1-0.1-0.1 0 0 0 0.1 0.1 0.1-5.9 34.7-4.2 25.1-10.1 59.8-10.7 63.1-21.3 126.2-32 189.2-5.1 30.1-10.2 60.2-15.2 90.3-2.5 15-25.5 13.7-28.9 0-10.7-43.3-21.4-86.6-32.2-129.8-10.4-42-18.1-73-28.5-115 0.2 0.2 0.4 0.3 0.6 0.5-0.2-0.1-0.4-0.3-0.6-0.5-0.5-0.4-1-0.8-1.3-1 0.2 0.1 0.6 0.4 1.3 1h-44.7c0.3-0.2 0.5-0.4 0.7-0.5-0.2 0.2-0.5 0.4-0.7 0.5-7.6 20.5-11.1 30-18.7 50.5-4.5 12.1-20.1 15.1-27.4 3.6-13-20.5-21.3-33.6-34.3-54l-0.6-0.3c0.2 0.1 0.3 0.2 0.6 0.3h-119.1c-19.3 0-19.3-30 0-30h112.2c10 0 22-2.1 28.3 7.8l22.3 35.2c7.6-20.5 4.3-11.5 11.9-31.9 2.9-7.9 9.9-13.2 20-10.1 19.7-0.1 38.1-0.3 57.8-0.4 7.6-2 16 3 17.9 10.6 10.7 43.3 21.4 86.6 32.2 129.8 10.4 42 3.6 14.5 14 56.5l5.9-34.7c10.7-63.1 21.3-126.2 32-189.2 5.1-30.1 10.2-60.2 15.2-90.3 2.1-12.6 22-14.8 27.4-3.6 20.5 42.1 38.2 78.3 58.8 120.4 0.1 0.3 0.1 0.1 0 0h46.5c5.4 0 11.8-0.8 16.6 2 4.2 2.4 7 7.8 9.6 11.7 3.8 5.6 7.6 11.3 11.3 16.9 8.3 12.3 6.2 10.7 14.5 23.1 0 0.1 0.1 0.1 0.1 0.2 0-0.1-0.1-0.1-0.1-0.2-0.5-1.1 0.1-1.5 0.8-1.4 10.8-18.4 11.1-18.9 22.5-38.2 1.3-2.3 2.7-4.5 4-6.8 5-8.5 14.2-7.4 22.5-7.4h35c19.4-0.2 19.4 29.8 0 29.8zM310.2 334.5c-0.1-0.1-0.2-0.1-0.3-0.1 0.1-0.1 0.2 0 0.3 0.1zM309.9 334.3zM311.9 335.4c0.1 0.1 0.2 0.1 0.3 0.2-0.1 0-0.1-0.1-0.3-0.2zM312.3 335.6s0 0.1 0 0c0 0.1 0 0 0 0zM390.2 336c-0.1 0-0.1 0 0 0zM391.3 335.1c-0.1 0.1-0.2 0.2-0.4 0.3 0.1-0.1 0.2-0.2 0.4-0.3zM390.5 335.7c-0.1 0.1-0.1 0.1-0.2 0.1 0.1 0 0.2 0 0.2-0.1zM392.4 334.3c0.1-0.1 0.2-0.2 0.3-0.2-0.1 0-0.2 0.1-0.3 0.2zM437.6 336zM437.1 335.6c0.2 0.2 0.3 0.3 0.4 0.3-0.1 0-0.2-0.1-0.4-0.3zM581.9 240.6c-0.3 0-0.5 0.1-0.8 0.1 0.3 0 0.5 0 0.8-0.1zM581 240.8v0zM585.5 240.2c0.3-0.1 0.3-0.1 0 0zM585 240.2v0zM647 304.5c0.1 0.1 0.2 0.1 0.3 0.2-0.1-0.1-0.2-0.2-0.3-0.2zM646.6 304.2zM646.7 304.3zM649.1 305.7zM648.4 305.3c0.1 0.1 0.2 0.1 0.3 0.2-0.1-0.1-0.2-0.2-0.3-0.2zM649 305.6zM694.3 334.3s0.1 0 0.1 0.1c-0.1 0-0.1-0.1-0.1-0.1zM696.3 335.5c0.1 0 0.1 0.1 0.2 0.1-0.1 0-0.1-0.1-0.2-0.1z"  horiz-adv-x="1024" />

    
    <glyph glyph-name="juli" unicode="&#58899;" d="M859.63541 74.156436v-103.431253c0-18.005836-14.629742-32.635579-32.635578-32.635579H197.102474c-18.005836 0-32.635579 14.629742-32.635578 32.635579V74.156436c0 18.005836-14.629742 32.635579-32.635579 32.635579-18.005836 0-32.635579-14.629742-32.635578-32.635579v-168.804716c0-18.005836 14.629742-32.635579 32.635578-32.635579H892.270989c18.005836 0 32.635579 14.629742 32.635578 32.635579v168.804716c0 18.005836-14.629742 32.635579-32.635578 32.635579-18.108142 0-32.635579-14.629742-32.635579-32.635579z m0 32.635579M597.699597 543.550177c0-44.912285-38.160097-81.026264-85.630029-81.230876-47.674544-0.204612-86.34617 36.113979-86.448476 81.12857-0.102306 44.707673 38.262402 81.026264 85.732335 81.230876 47.77685 0.204612 86.34617-36.011673 86.34617-81.12857m-229.369803 1.023059c-0.716141-74.887911 63.225039-135.759914 143.33055-136.578362 77.65017-0.818447 142.409797 59.848945 143.228245 134.225326 0.818447 74.887911-62.304286 135.555303-142.307492 136.782974-78.161699 1.125365-143.535162-59.848945-144.251303-134.429938M870.037873 640.02463c-1.943812 6.445271-4.092236 12.788236-6.445271 19.131201-2.25073 6.240659-4.808377 12.481318-7.46833 18.619672-2.659953 6.036047-5.422212 12.072095-8.389083 18.005837-2.966871 5.831436-6.036047 11.662871-9.412142 17.289695-3.273788 5.626824-6.649883 11.253648-10.332894 16.67586-3.683012 5.524518-7.46833 11.151342-11.45826 16.471248-3.4784 4.603765-8.696001 7.979859-14.42513 9.719059-2.966871 0.920753-6.036047 1.329977-9.105224 1.329977-16.062025 0-29.054872-12.072095-29.054873-27.008755 0-7.263718 3.069177-13.811295 8.184471-18.721978 19.745037-27.520284 34.988614-58.621274 44.503062-92.689135 18.312754-65.884992 13.299766-130.849232-15.652801-193.35813-31.10099-67.112663-72.637181-128.086973-124.301655-182.922929-51.152944-54.324427-104.863536-106.193513-160.927163-156.01648-1.329977-1.125365-2.659953-2.148424-4.296847-3.478401-5.2176 4.603765-10.230589 9.002918-15.243578 13.504378-60.565086 54.631345-119.084055 111.001889-172.69234 171.771587-39.592379 44.912285-70.591063 94.837559-97.088289 147.32048C202.798866 462.933137 193.48903 513.063022 197.069736 565.341331c8.798306 126.450079 106.705042 236.838133 237.349662 267.222982 53.915203 12.583624 110.899583 11.969789 164.405564-2.455341 15.448189-4.194541 30.589461-9.412142 45.116897-15.755107 7.263718-3.171483 14.42513-6.547577 21.38193-10.230589 7.775248-4.092236 15.038966-9.002918 24.246496-9.002918 16.16433 0 29.259484 12.072095 29.259484 26.906448 0 19.233507-21.177319 27.520284-36.625508 34.988614-17.801225 8.696001-36.318591 15.959719-55.347486 21.791155-19.233507 5.831436-38.876238 10.332895-58.825886 13.095153C547.774323 894.766293 527.21084 896.09627 506.749662 895.891658c-21.075013-0.306918-42.04772-2.25073-62.71351-5.831436-6.138353-1.023059-12.276707-2.25073-18.312754-3.580706-156.732622-34.477085-274.895923-165.326316-285.740348-316.125196-4.399153-60.97431 6.240659-119.493278 33.35172-174.840764 25.167249-51.562168 55.142874-100.873606 92.58683-145.478974 62.71351-74.683299 133.816103-142.000574 207.27173-207.169425 7.775248-6.854495 15.857413-13.299766 26.190308-15.448189 9.616754-2.046118 23.325743-1.7392 32.737884 2.148424 7.877553 3.273788 19.438119 13.708989 25.474167 19.233507 17.698919 15.959719 26.497225 25.37186 42.559249 39.387767 21.381931 18.619672 40.410826 39.285461 60.360475 59.23511l1.841506 1.841506c18.721978 18.517366 37.239344 37.034732 55.552097 55.859015 58.518968 60.258169 104.352007 128.496196 138.010644 203.691024 33.556332 75.092522 37.955485 152.844998 14.118213 231.211309"  horiz-adv-x="1024" />

    
    <glyph glyph-name="you-jiantou" unicode="&#58912;" d="M492.9536 833.5872a448.512 448.512 0 0 0 448.512-448.5632 448.512 448.512 0 0 0-896.9728 0 448.512 448.512 0 0 0 448.4608 448.5632z m176.9984-467.8656a49.4592 49.4592 0 0 1-10.24 57.6512L395.1616 673.6384a49.92 49.92 0 0 1-70.6048-1.9968 50.0736 50.0736 0 0 1 1.9456-70.656l226.6624-214.4768-225.8432-217.6512a50.176 50.176 0 0 1 34.6624-86.016 50.176 50.176 0 0 1 34.7136 13.9776l262.3488 252.8768a13.568 13.568 0 0 1 1.8432 2.2528l0.512 0.512 0.2048 0.1536a34.9696 34.9696 0 0 1 5.7856 8.6016l0.6656 1.1776a20.2752 20.2752 0 0 1 1.8944 3.328z"  horiz-adv-x="1024" />

    
    <glyph glyph-name="jiankangshuidi" unicode="&#58886;" d="M878.23 250.19c-40.072 279.907-298.667 645.81-375.455 645.81-46.918 0-327.586-367.146-375.462-645.81-46.004-267.898 168.101-378.19 375.462-378.19s414.722 103.908 375.455 378.19zM683.499 237.259h-110.753v-110.775h-139.921l0 110.775h-110.753v139.899h110.753v110.767h139.921v-110.767h110.753v-139.899z"  horiz-adv-x="1024" />

    
    <glyph glyph-name="dianhua" unicode="&#59163;" d="M392.728893 262.336512c91.844608-91.174912 198.155264-178.270208 239.891456-136.214528 59.758592 60.192768 96.543744 112.569344 229.149696 6.810624 132.604928-105.8048 31.330304-177.00864-26.5472-235.339776-66.792448-67.293184-316.950528-4.716544-564.913152 241.366016C22.363453 385.09056-42.126019 634.764288 24.714557 702.091264c57.893888 58.333184 128.342016 160.111616 235.073536 28.27776 106.778624-131.76832 54.690816-168.956928-5.0688-229.16608-41.71776-42.039296 46.149632-147.677184 138.0096-238.866432z m133.179392 434.955264s-27.707392 4.329472-47.106048-15.086592c-19.970048-19.968-20.842496-54.370304 0.200704-75.398144 12.435456-12.435456 29.97248-15.086592 29.97248-15.086592 34.185216-6.41024 85.70368-17.266688 140.52864-72.075264 54.805504-54.808576 65.666048-106.32704 72.075264-140.527616 0 0 2.653184-17.536 15.085568-29.97248 21.02784-21.026816 55.42912-20.171776 75.399168-0.200704 19.39968 19.398656 15.087616 47.105024 15.087616 47.105024-10.85952 69.240832-44.422144 141.568-102.048768 199.1936-57.644032 57.627648-129.973248 91.175936-199.194624 102.048768z m259.8912-41.350144c100.487168-100.486144 143.330304-214.53312 129.386496-306.948096 0 0-4.86912-29.26592 14.246912-48.379904 21.513216-21.513216 55.612416-20.273152 75.7504-0.150528 12.940288 12.940288 15.757312 33.999872 15.757312 33.999872 11.529216 79.860736-2.968576 240.526336-159.541248 397.080576C704.830781 888.095744 544.181565 902.595584 464.317757 891.081728c0 0-21.0432-2.801664-33.998848-15.755264-20.13696-20.137984-21.363712-54.238208 0.150528-75.752448 19.115008-19.113984 48.381952-14.247936 48.381952-14.247936 92.417024 13.945856 206.462976-28.896256 306.948096-129.384448z"  horiz-adv-x="1024" />

    
    <glyph glyph-name="xinshuaijiance" unicode="&#58894;" d="M712 839.1c-73.4 0-144.2-26.4-200-73.7-55.7 47.3-126.6 73.7-200 73.7C140 839.1 0 697 0 522.4c0-83 23.7-164.6 70.4-242.5 37-61.7 88.7-121.4 153.6-177.4C296 40.3 385.8-18 476.9-62c1.3-0.6 2.3-1.1 2.9-1.4 9.9-5 21.1-7.8 32.2-7.8 11.1 0 22.2 2.7 32.2 7.8 0.6 0.2 1.5 0.7 2.9 1.4C638.2-18.1 728 40.3 800 102.5c64.9 56 116.6 115.7 153.6 177.4 46.7 77.9 70.4 159.6 70.4 242.6C1024 697 884 839.1 712 839.1z m218-480.4c-31.3 0-73.2-0.8-73.2-0.8-7.7 0.5-14.9-1.6-21.5-6.2-6.6-4.7-11.3-9.2-14-13.7-2.2-4.4-6.1-12.9-11.5-25.6-5.6-12.6-10.5-25.6-14.9-38.8-2.2-6.6-5.8-11-10.8-13.1-4.9-2.3-10.1-3.2-15.3-2.9-5.2 0.3-10.2 1.7-14.9 4.4-4.7 2.8-7.8 6.1-9.5 10-1.6 3.8-4.4 10.5-8.2 20.2-3.8 9.6-7.7 19.4-11.5 29.3-5 11.5-10 23.9-14.9 37.1-14.4-45.7-27.3-87.8-38.9-126.4-4.9-16.5-9.9-32.7-14.9-48.8-19.2-61.8-24.7-107.6-60.3-109.1-43.7 0-51.4 71.1-53.8 95.1-2.2 22-4.5 46.6-7 73.5-2.5 27-5 54.5-7.8 82.6-6.1 65.5-13.2 138.8-21.5 219.7-15.4-45.2-29.2-85.6-41.3-121.4-4.9-15.5-10.1-30.6-15.3-45.5-5.2-14.9-9.9-28.4-14.1-40.5-4.1-12.1-7.6-22.3-10.3-30.6l-5-14.9c-2.8-7.1-6.5-13.7-11.2-19.8-4.7-6.1-12-8.8-21.9-8.3-9.9 0-17.4 3.4-22.3 10.4-5 6.9-8.8 14.7-11.6 23.5-1.7 4.4-4.7 12.9-9.1 25.6-4.4 12.7-9.1 25.6-14.1 38.8-6.1 15.4-12.4 32.5-19 51.2-3.9-5-8-9.9-12.4-14.9-3.8-4.4-8-9.2-12.4-14.5-4.4-5.2-8.8-10.3-13.2-15.2-8.8-10.4-17.1-17.7-24.8-21.5-7.7-3.8-16.8-5.2-27.3-4.1-5.5 0.5-12.8 0.7-21.9 0.3-9.1-0.3-18.3-0.3-27.7-0.3-10.5-0.6-63.8-0.9-76.5-0.9V407h87.3c12.1 0 21.9 1.1 29.3 3.3 7.4 2.2 14.7 6.4 21.9 12.4l13.2 13.2c5.5 5.5 11.3 11.8 17.4 19 6.1 7.1 12.3 14.5 18.6 21.9 6.3 7.4 12.3 14.5 17.8 21.1 11 13.8 20.9 19.1 29.8 16.1 8.8-3 15.4-9.5 19.9-19.4l36.4-100c18.8 52.3 35.3 99.7 49.6 142.1 6.1 18.2 12.1 36 18.2 53.3-3.5-9.9 27.9 103.3 58.7 103.3 44.7 0 46.7-47.9 53.7-80.6 4.5-21.2 5.6-45.3 8.7-71.5 3.1-26.1 6.2-52.7 9.5-79.7 7.2-63.3 15.5-134.1 24.8-212.3 12.1 39.7 23.1 75.8 33.1 108.2 3.8 13.8 7.9 27.4 12 40.9s8 25.9 11.6 37.1c3.6 11.3 6.5 20.8 8.7 28.5 2.2 7.7 3.9 12.7 5 14.8 2.7 8.8 6.1 15.4 9.9 19.9 3.8 4.4 9.1 7.4 15.7 9.1 12.7 3.3 22.2 1.6 28.6-5.4 6.3-6.9 9.5-13.9 9.5-21 0-6.1-0.5-11.3-1.7-15.7-0.6-2.2-0.8-4.1-0.8-5.8l29.7-80.9c0.6 0.5 1.4 1.7 2.5 3.2 1.7 2.8 4.4 8.6 8.2 17.4 4.5 9.4 11.8 15.5 22 18.6 14.2 4.2 45.2 2.9 47.5 2.9h79.8v-62.3z"  horiz-adv-x="1024" />

    
    <glyph glyph-name="paobu" unicode="&#58945;" d="M46.728533 39.7312l239.0016 138.077867 83.6352 129.006933c7.441067-20.394667 22.2208-37.4784 42.1888-47.2064l36.7104-17.8944-83.925333-129.4336a50.9696 50.9696 0 0 0-17.194667-16.366933l-249.591466-144.1536a50.781867 50.781867 0 0 0-69.4016 18.5856 50.798933 50.798933 0 0 0 18.577066 69.384533zM785.365333 586.001067c-65.4336 0-118.5024 53.085867-118.5024 118.570666 0 65.399467 53.0688 118.485333 118.5024 118.485334 65.467733 0 118.545067-53.085867 118.545067-118.485334 0-65.4848-53.077333-118.570667-118.545067-118.570666zM728.6784 471.458133c19.1232 16.989867 29.474133 42.257067 28.125867 67.746134l54.9632-36.906667 102.5792 112.4096a50.756267 50.756267 0 0 0 71.773866 3.268267 50.798933 50.798933 0 0 0 3.268267-71.7568l-132.087467-144.7424a50.730667 50.730667 0 0 0-65.826133-7.893334L705.792 451.114667l22.8864 20.343466zM623.3344 194.1248l-196.932267 95.914667a50.816 50.816 0 0 0-11.511466 83.626666l174.455466 155.1616-104.064 68.949334-152.234666-43.554134c-27.0592-7.6032-55.099733 7.9104-62.830934 34.858667a50.858667 50.858667 0 0 0 34.850134 62.839467l174.788266 49.954133a50.773333 50.773333 0 0 0 42.026667-6.4768l178.594133-118.357333a50.602667 50.602667 0 0 0 22.596267-38.7584 50.705067 50.705067 0 0 0-16.904533-41.531734l-167.082667-148.565333 179.2256-87.304533a50.747733 50.747733 0 0 0 26.538667-31.5392 50.722133 50.722133 0 0 0-5.572267-40.814934l-135.5264-219.451733a50.7904 50.7904 0 1 0-86.442667 53.367467l106.026667 171.682133z"  horiz-adv-x="1024" />

    
    <glyph glyph-name="dashuju" unicode="&#59077;" d="M892.809 307.088h-3.375l-238.699 387.787c13.565 11.821 23.703 30.362 23.703 50.602 0 37.087-30.469 67.425-67.708 67.425-37.241 0-67.715-30.339-67.715-67.425 0-3.374 0-8.421 1.703-11.818l-269.148-99.461c-11.863 16.844-32.169 26.964-54.173 26.964-37.278-0.037-67.527-30.171-67.71-67.446 0.115-29.417 19.305-55.359 47.404-64.074l-60.941-257.964c-30.469-6.724-54.173-33.714-54.173-65.747 0-37.088 30.47-67.446 67.713-67.446 0.074 0 0.161 0 0.251 0 20.77 0 39.413 9.104 52.159 23.537l252.299-139.867v-1.676c0.17-37.276 30.414-67.421 67.69-67.469 37.289 0.038 67.552 30.179 67.731 67.469v10.1l265.749 155.135c11.862-8.446 25.401-13.498 40.635-13.498 37.241 0 67.715 30.339 67.715 67.424-3.394 37.107-33.868 67.446-71.105 67.446zM605.033 779.19c18.634 0 33.871-15.169 33.871-33.713 0-18.542-15.241-33.734-33.871-33.734-18.604 0-33.844 15.194-33.844 33.734 0 18.544 15.241 33.713 33.844 33.713zM579.654 683.103c1.697 0 3.375-1.696 6.77-1.696l-33.867-251.22-126.955 72.494 154.051 180.422zM581.356 381.283l223.437-126.447-240.371-11.799 16.933 138.243zM549.186 399.825l-20.308-158.485-108.346-5.051-79.574 168.603 66.035 77.548 142.192-82.615zM550.882 705.020c1.676-3.374 5.068-5.072 6.766-8.445l-155.75-180.4-120.187 69.121v8.423c0 3.396 0 8.445-1.674 11.818l270.843 99.483zM271.574 556.634l111.719-62.398-55.87-64.049-57.547 124.774 1.696 1.676zM181.859 593.717c0 18.564 15.231 33.734 33.844 33.734 18.629 0 33.865-15.169 33.865-33.734-0.801-18.117-15.723-32.393-33.857-32.393-18.132 0-33.055 14.275-33.854 32.393zM148.003 172.925c-18.367 0-33.386 14.641-33.857 33.004 0.47 18.357 15.489 33.003 33.857 33.003 18.367 0 33.386-14.641 33.857-33.003-0.47-18.364-15.489-33.004-33.857-33.004zM185.232 263.257c-5.072 3.375-10.164 5.072-16.933 8.423l60.941 257.964c5.091 1.697 11.862 3.375 16.933 5.072l60.941-129.822-121.885-141.637zM318.955 377.909l67.71-144.987-172.662-8.446c-3.374 6.742-6.769 15.169-10.141 20.24l115.092 133.195zM461.168 52.497l-247.162 136.567v1.695l187.897 10.123 64.337-138.263-5.072-10.121zM434.071 202.559l89.714 5.072-15.231-119.724c-6.769-1.676-11.84-3.375-16.911-5.051l-57.569 119.701zM520.411-13.25c-18.626 0-33.863 15.169-33.863 33.731 0 18.518 15.238 33.711 33.863 33.711 18.607 0 33.847-15.189 33.847-33.711 0-18.563-15.241-33.731-33.847-33.731zM576.261 57.543c-8.465 11.822-20.308 21.941-35.539 26.989l16.928 123.098 269.148 13.493 5.068-15.189-255.605-148.389zM833.565 271.681l-248.836 141.637 35.542 266.411c1.695 0 3.393 0 3.393 1.676l235.302-382.736c-13.381-7.092-23.403-19.024-27.835-33.407zM892.809 205.932c-18.607 0-33.844 15.189-33.844 33.711 0 18.564 15.238 33.737 33.844 33.737 18.634 0 33.867-15.17 33.867-33.737 0-18.519-15.238-33.711-33.867-33.711z"  horiz-adv-x="1024" />

    
    <glyph glyph-name="duanxin" unicode="&#59019;" d="M758.690909 407.272727c-32.581818 0-60.509091 27.927273-60.509091 60.509091 0 32.581818 25.6 60.509091 60.509091 60.509091 32.581818 0 60.509091-27.927273 60.509091-60.509091 0-32.581818-27.927273-60.509091-60.509091-60.509091z m-237.381818 0c-32.581818 0-60.509091 27.927273-60.509091 60.509091 0 32.581818 27.927273 60.509091 60.509091 60.509091 32.581818 0 60.509091-27.927273 60.509091-60.509091-2.327273-32.581818-27.927273-60.509091-60.509091-60.509091z m-237.381818 0c-32.581818 0-60.509091 27.927273-60.509091 60.509091 0 32.581818 25.6 60.509091 60.509091 60.509091 32.581818 0 60.509091-27.927273 60.509091-60.509091-2.327273-32.581818-27.927273-60.509091-60.509091-60.509091zM909.963636 837.818182H132.654545C48.872727 837.818182 9.309091 795.927273 9.309091 714.472727v-495.709091c0-83.781818 37.236364-121.018182 118.690909-121.018181h118.690909l-13.963636-125.672728c0-16.290909 9.309091-30.254545 20.945454-37.236363 6.981818-2.327273 11.636364-4.654545 18.618182-4.654546 6.981818 0 16.290909 2.327273 23.272727 6.981818l237.381819 160.581819h381.672727c81.454545 0 118.690909 39.563636 118.690909 121.018181V714.472727c0 83.781818-41.890909 123.345455-123.345455 123.345455z"  horiz-adv-x="1033" />

    
    <glyph glyph-name="arrow-circle-o-right" unicode="&#58881;" d="M128 384c0 212.001 171.999 384 384 384s384-171.999 384-384-171.999-384-384-384-384 171.999-384 384M64 384c0-247.2 200.8-448 448-448s448 200.8 448 448-200.8 448-448 448-448-200.8-448-448zM386.399 610.4l227.2-226.4-227.2-226.4 45.6-45.6 272.001 272.001-272.001 272.001-45.6-45.6z"  horiz-adv-x="1024" />

    
    <glyph glyph-name="weixin" unicode="&#58937;" d="M693.216 548.256c11.744 0 23.36-0.864 34.912-2.144C696.768 691.776 540.64 800 362.432 800 163.2 800 0 664.544 0 492.544c0-99.296 54.304-180.8 145.024-244.064l-36.256-108.736 126.688 63.36c45.344-8.96 81.696-18.144 126.944-18.144 11.36 0 22.656 0.544 33.824 1.44a268.832 268.832 0 0 0-11.168 75.744c0.032 157.952 136 286.112 308.16 286.112z m-194.88 98.016c27.296 0 45.376-17.92 45.376-45.12 0-27.104-18.08-45.248-45.376-45.248-27.168 0-54.432 18.144-54.432 45.248 0 27.232 27.264 45.12 54.432 45.12z m-253.632-90.336c-27.168 0-54.56 18.144-54.56 45.248 0 27.2 27.424 45.12 54.56 45.12 27.168 0 45.248-17.92 45.248-45.12-0.032-27.104-18.112-45.248-45.248-45.248zM1024 266.496c0 144.544-144.992 262.336-307.84 262.336-172.448 0-308.256-117.824-308.256-262.336 0-144.768 135.808-262.336 308.256-262.336 36.096 0 72.512 9.088 108.736 18.144L924.32-32l-27.264 90.336C969.792 112.768 1024 184.96 1024 266.496z m-407.808 45.248c-18.048 0-36.256 17.92-36.256 36.16 0 18.016 18.208 36.16 36.256 36.16 27.424 0 45.376-18.144 45.376-36.16 0-18.272-17.952-36.16-45.376-36.16z m199.36 0c-17.92 0-36 17.92-36 36.16 0 18.016 18.08 36.16 36 36.16 27.168 0 45.376-18.144 45.376-36.16 0-18.272-18.208-36.16-45.376-36.16z"  horiz-adv-x="1024" />

    
    <glyph glyph-name="xieya" unicode="&#58938;" d="M612.456 256.16V703.01c0 68.882-56.63 130.036-124.107 130.036-67.479 0-121.802-58.79-121.802-127.672V260.89c-37.292-34.244-61.476-81.708-61.476-136.883 0-103.297 82.032-187.025 183.278-187.025 101.243 0 183.276 83.728 183.276 187.025 0 55.174-21.935 97.91-59.17 132.153zM488.329-13.372c-72.356 0-131.451 62.73-133.578 136.909-2.255 78.587 54.359 113.707 54.359 113.707v479.95c0 37.073 43.133 73.311 79.282 73.311 36.206 0 81.504-36.238 81.504-73.31v-484.68c31.11-23.891 52.076-70.925 52.016-108.978 0-74.21-61.227-136.91-133.583-136.91zM672.277 678.37h69.801c11.883 0 21.545 9.672 21.545 21.558 0 11.887-9.662 21.56-21.545 21.56h-69.8c-11.939 0-21.546-9.672-21.546-21.56 0-11.886 9.665-21.558 21.545-21.558z m69.8-21.557h-69.8c-11.939 0-21.602-9.67-21.546-21.558 0-11.887 9.666-21.559 21.545-21.559h69.801c11.883 0 21.545 9.672 21.545 21.56 0 11.885-9.662 21.557-21.545 21.557z m0-64.73h-69.8c-11.939 0-21.602-9.672-21.546-21.559 0-11.888 9.666-21.559 21.545-21.559h69.801c11.883 0 21.545 9.671 21.545 21.56 0 11.887-9.662 21.557-21.545 21.557zM557.36 202.274l-27.662 23.148V338.91c0 23.504-16.69 42.558-40.196 42.558-23.506 0-42.562-19.054-42.562-42.558v-113.486l-27.604-23.148c-22.511-20.65-34.847-48.463-34.847-78.27 0-58.418 46.614-105.969 103.861-105.969 57.244 0 103.858 47.552 103.858 105.969 0 29.748-12.391 57.564-34.848 78.27z"  horiz-adv-x="1024" />

    
    <glyph glyph-name="flyme_icon-" unicode="&#59000;" d="M512.416 5.184c-194.096 0-352 157.904-352 352s157.904 352 352 352c194.08 0 352-157.904 352-352s-157.92-352-352-352z m0 672c-176.448 0-320-143.552-320-320s143.552-320 320-320 320 143.552 320 320-143.552 320-320 320zM464.912 125.808V372.432h32v-169.376l137.376 137.376h-81.888v32h159.136zM568.4 340.432h-32V509.808l-137.36-137.376h89.376v-32H321.792l246.608 246.624zM885.088 542.24A418.976 418.976 0 0 1 692.32 732.4l13.84 28.848a450.992 450.992 0 0 0 207.584-204.752l-28.656-14.256zM138.944 540.64l-28.72 14.128A451.488 451.488 0 0 0 313.12 758.528l14.256-28.656A419.152 419.152 0 0 1 138.944 540.64z"  horiz-adv-x="1024" />

    
    <glyph glyph-name="xiaoliangredu" unicode="&#58897;" d="M510.2824832-87.9892053333333c-187.10949226666668 0-338.8305994666666 149.26735573333332-338.8305994666666 333.4188106666667 0 123.8828128 58.788532266666664 249.05035199999998 128.59493333333333 354.7155861333333 19.659485866666667-98.92833173333334 70.42748053333332-169.86446293333333 130.5018304-169.86446293333333 77.08579200000001 0 139.53421333333333 116.01945493333332 139.53421333333333 259.09785493333334 0 69.29993280000001-14.872050133333332 131.9033504-38.69898453333334 178.38819413333334 12.458684799999999-11.1739584 317.76631893333337-287.8279264 317.76631893333337-622.3360810666667C849.1501941333333 61.27815039999996 697.4290869333333-87.9892053333333 510.2824832-87.9892053333333zM685.4779616 390.41381013333336c-2.9984234666666665-36.4788192-53.76641813333333-177.1831488-179.86721279999998-177.1831488-52.98815893333334 0-123.13839146666666-12.424846933333333-134.86247893333334-88.57083519999999-5.883328000000001-38.211071999999994 28.18649173333333-132.9533984 142.3372533333333-132.9533984C730.8745536-8.293572266666615 685.4779616 390.41381013333336 685.4779616 390.41381013333336z"  horiz-adv-x="1024" />

    
    <glyph glyph-name="progress" unicode="&#58883;" d="M640 0L640 768c0 70.40000001-57.6 128-128 128s-128-57.6-128-128l0-768c0-70.40000001 57.6-128 128-128s128 57.6 128 128z m-192 0L448 403.19999999c19.2-9.6 41.6-19.2 64-19.19999999s44.8 6.4 64 19.19999999L576 0c0-35.2-28.8-64-64-64s-64 28.8-64 64z"  horiz-adv-x="1024" />

    
    <glyph glyph-name="wendu" unicode="&#58941;" d="M236 788c32 0 58-10 78-30s30-46 30-76-10-56-30-76-46-30-78-30c-30 0-56 12-78 32s-32 44-32 74 10 54 32 74c22 22 48 32 78 32z m0-170c16 0 30 6 42 18s18 26 18 44-6 34-18 46-26 18-42 18c-18 0-32-6-44-18s-16-28-16-46 4-32 16-44 26-18 44-18z m666-396c-34-46-72-82-112-104s-90-32-148-32c-90 0-164 30-220 92-58 62-86 142-86 238 0 88 30 164 88 226 58 64 130 96 218 96 50 0 98-12 144-38 46-24 86-60 116-106l-48-40c-58 82-128 122-212 122-70 0-128-24-172-74-44-48-66-112-66-190s22-142 66-190 102-74 176-74c46 0 86 10 118 30 30 18 60 46 90 84z"  horiz-adv-x="1024" />

    
    <glyph glyph-name="yundong" unicode="&#58987;" d="M549.2 620.7c3.2 2.7 6.6 0.2 6.6 0.2s3.4 4.9 9.3 12 21.3 17.8 36.7 21.5c15.4 3.7 42.9 20.4 54 25 11.1 4.6 26.1 12.4 31.9 17.9 5.9 5.5 32.9 15.6 50.2 20.2 17.3 4.6 52.8 18.4 58 20 5.3 1.6 8.2 7.7 9.5 10.9 1.4 3.2 8.2 6.9 8.2 6.9s1.1 5.9 1.1 10.5 2.6 12.8 4.4 15.3c1.8 2.4 5.5 4.8 5.6 6.7 0.1 2 3.9 3.7 3.9 3.7s0.5 1.2 1.8 3.5 3.8 1.2 3.8 1.2 1 2.6 3.4 3.2c2.4 0.6 4.3-0.4 4.3-0.4s1.2 2.1 3.4 0.6 1.7-2.7 1.7-2.7 6.4 1.8 7.7-2.9c1.3-4.7-7-10.9-9.6-17-2.6-6 0.2-16.3 0.2-16.3s2.9-2 3.9-3.4c1-1.5 4.1-0.3 6.8-3.4 2.8-3.1 1.5-8.3 1.5-8.3s2.1 0.3 2.1-2.9c0-3.3-1.5-5.2-1.5-5.2s1.3-1.8 1.3-5.7c0-3.9-4.2-11.3-4.2-11.3s2.5-11.8 2.8-26.5c0.3-14.7 8.3-46.5 11.3-56.3 2.9-9.8 13.4-55.9 15-64.2 1.6-8.3 3.6-21.8 4.2-25.1 0.7-3.3 1.3-21.4-1.1-25.4-2.4-4.1-8.1-12.4-13.8-17.6-5.7-5.2-14.5-17.1-15-17.1s1.1-6.4 2.1-12.1c1-5.7 2.8-20 4.4-29.7 1.6-9.6 6-36.8 3.7-39.9-2.3-3.1-1.6-7.2-2-14.5-0.3-7.3-5.9-4.1-7.2-5.1-1.3-1-3.9-1-5.1 2-1.1 2.9-1.5 2-3.9 2.4-2.4 0.5-6.4 3.9-6.8 7.2-0.5 3.3-2.3 2.1-5.1 2.3-2.8 0.2-4.9 2.3-4.9 3.6 0 1.3-1.3 1.3-6.5 2.1s-9.2 3.6-7.3 7c2 3.4-15.9-0.5-26.4-2.5-10.5-2-47.9-4.2-47.9-4.2 5.4-8.8 1.2-20.3 1.2-20.3s26.4-227.4 26.9-235.6c0.5-8.2-11.1-6.4-11.1-6.4s-0.2-3.7-0.3-9c-0.2-5.2-12.5-3.7-12.5-3.7s0-2.6 1-5.9c1-3.3-24.9-18.6-24.9-18.6s-0.5-2.5-0.5-8.8c0-6.4-11.7-37.3-17.3-52.7-5.5-15.3-6.9-32.4-6.9-40.6 0-8.2 3.9-19.4 3.4-24.9s-10.8-6.8-15.7-6.2c-4.9 0.6-17.1-0.5-23.8-1.8-6.7-1.3-29.7-3.3-33.9-4.2-4.2-1-8.8 1.6-12.2 1.2-3.3-0.3-4.1-2-6.4-1.8-2.4 0.2-4.2 1.8-4.2 1.8s-0.7-2.6-4.6-1.6c-3.8 1-3.4 2.6-3.4 2.6s-1.1-1.9-4-1.2-2.9 2.2-2.9 2.2-1.7-1.5-3.7-0.2c-2 1.4 0 2.5 0 2.5-3.4 0.1-4 2.7-3.7 4.7 0.3 2 3.4 4.2 5.6 2.4 2.2-1.8 4.9 1.1 10.8 3.4s15.3 9.1 33.2 16.3c17.9 7.2 23.5 26.1 26.9 37.8 3.4 11.7 2.2 52.1 2.2 52.1l-3.4 0.2s1.9 18.1 0.6 27.2c-1.3 9.1 0.2 38.3 3.1 50 2.9 11.7 0 16.1-6.4 25.9-6.4 9.8-4.2 44.3-14 67.2-9.8 22.8-16.8 72.5-17.3 77.1-0.5 4.6-0.7 6.8 1.2 9 2 2.2-2 2.7-5.6 7.1-3.7 4.4-5.6 9.5-5.6 9.5s-6.4 0-8.3 4.6c-2 4.7-11.2 4.2-20 7.3-8.8 3.2-22.5 14.4-29.6 22.7-7.1 8.3-18.3 17.8-27.6 22.5-9.3 4.6-22.2 19.1-28.1 24.4-5.9 5.4-18.1 15.9-25.2 22.3-7.1 6.4-8.8 27.1-8.8 27.1s-9.3 11.7-15.2 16.9c-5.9 5.1-17.6 11.5-26.2 12.2-8.6 0.7-39.6 14.4-47.7 20.5-8.1 6.1-41.6 28.9-46 31.5-4.4 2.7-35.5 9.5-45 10.8-9.5 1.2-44 12.5-58.4 20.3-14.4 7.8-18.7 7.3-23.2 5.7-4.5-1.6-16.1 0.6-21.7 0.7-5.5 0.1-10.6-0.7-16.5-2.8-5.9-2.1-17.5-2.8-18.3-0.2-0.9 2.6 8.2 3.9 13.3 5.9 5.1 2 8.7 4.4 8.3 5.7-0.4 1.3-5.4 0.1-8.6 0.1-3.2 0-10.8 0.1-15.4-1s-12-1.1-12.2 1.2c-0.3 2.3 1.2 4.1 6 4.4 4.8 0.2 17.8 3.7 23.2 4 5.4 0.4-0.9 1.3-4.4 1.3-3.5 0-10.1-0.4-16-2.1-5.9-1.7-10.8-1.2-11.3 1s2.1 4.4 9.8 6.1c7.7 1.7 16.9 3.5 21.5 3.7 4.6 0.1 1.2 2-1.3 2-2.6 0-8.2 1.6-13.5 1.6-5.2 0-14-2.4-14 3.8 0 6.2 38.6 2.9 46.6 2.9s31.5-10.1 38.6-11.7c7.2-1.6 18.6-3.3 26.6-5.5 8-2.3 49.6-7.2 60-7 10.4 0.2 28.5-6.7 38.6-13.2 10.1-6.5 45.2-16.8 54.3-20.1 9.1-3.3 26.1-5.2 36.7-5.7 10.6-0.5 26.1-11.1 26.1-11.1s1.8 2 4.7 2.4c2.9 0.5 8.3 5.2 10.3 7.3 2 2.1 2.1 3.4 1.1 5s-2 6.8-2 6.8-17.3 0.5-25.4-1.1c-8.1-1.6-11.2 8-10.3 12.4 1 4.4-2.1 5.5-4.1 7-2 1.5-2.5 1.5 0 3.3 2.4 1.8 0 1.8-1.8 2.6s-0.8 2.8 1.1 7.2c2 4.4-4.9 2.4-7.2 3.9s1.3 10.6 3.6 16.3c2.3 5.7-0.7 10.4-0.8 19.9-0.2 9.5 9.1 25.1 9.1 25.1s0.2 3.6 3.8 8.1c3.6 4.6 25.6 11.4 45.1 11.9 19.6 0.5 27.2-10.6 27.2-10.6 4.9 5.1 7.5 1.5 7.5 1.5s3.2 5.4 8.8 2.7c5.6-2.7 13.2-3.9 15.4-23.7 2.7-18.9-2.7-64.8-1.5-63.7m254.4 88c-2.8 2.3-23.8-10.6-31-14.8-7.2-4.2-34.2-18.6-40.3-20.2-6-1.6-33.4-12.7-36.2-14.5-2.8-1.8-22-28.4-32.4-40.3-10.4-11.9-43.4-25-47-26.9-3.6-2-3.1-3.9-1.3-7.5s0.3-13.7 0.3-13.7 3.4-1.8-0.5-8.3c-3.9-6.5 4.2-8.2 3.7-9.5-0.5-1.3-1.6-2.8 1.5-5.5 3.1-2.8 3.1-6.4 1.5-10.6-1.6-4.2 0.5-3.1 4.1-5.2 3.6-2.1 5.2-8.8 4.4-11.4-0.8-2.6 3.6-4.7 6-4.9 2.4-0.2 3.4-0.2 4.7-2.3 1.3-2.1 4.4 2.9 7.8 6.2 3.4 3.3 7 3.1 7 3.1s10.6 2.3 18.4 2.4c7.8 0.2 20.7-4.7 24.1-7.5 3.4-2.8 2.9-0.5 8.5-2.1 5.5-1.6 8.8-1.1 12.1 1.1 3.3 2.3 7.5-0.3 10.9 2.4 3.4 2.8 4.4-0.5 10.1 2.8 5.7 3.3 27.4 7 34.4 9.5 7 2.4 16.6 7 20.7 9.1 4.1 2.1 9.3 1.1 11.2 4.6 2 3.4 12.9 4.7 14.8 4.2 2-0.5 1.6 1 0.3 4.2-1.3 3.3 1 4.1-0.7 7.7-1.6 3.6 1.6 3.6 0.2 6.5-1.5 2.9 2.3 3.4 2.3 3.4s-3.1 12.4-5.4 25.3c-2.3 12.9 2.9 48.9 3.3 60 0.3 11.1 0.6 34.1-0.5 36.5-1.1 2.4-2.8 0.8-10.1 3.6-7 2.8-6.9 12.6-6.9 12.6"  horiz-adv-x="1024" />

    


  </font>
</defs>
</svg>
